<svg aria-hidden="true" style="position:absolute;width:0;height:0" xmlns="http://www.w3.org/2000/svg" overflow="hidden"><defs><symbol id="magnifyingglass" viewBox="0 0 32 32"><path d="M31.644 28.711a2.933 2.933 0 01-5.008 2.073l-8.597-8.596a11.542 11.542 0 01-5.95 1.634c-6.48 0-11.733-5.253-11.733-11.733S5.609.356 12.089.356s11.733 5.253 11.733 11.733c0 2.196-.608 4.249-1.663 6.003l.029-.053 8.597 8.597c.53.53.859 1.262.859 2.075zM12.089 3.289a8.8 8.8 0 000 17.6 8.8 8.8 0 000-17.6z"/></symbol><symbol id="shoppingcart" viewBox="0 0 38 32"><path d="M37.815 7.814h.002l-5.28 11.733a1.762 1.762 0 01-1.481 1.034h-.005l-15.206 1.013.879 2.509h16.557a3.52 3.52 0 11-3.52 3.52H13.334v.002a3.52 3.52 0 11-3.52-3.52h3.179L6.222 4.745H2.19a1.76 1.76 0 010-3.52h5.278c.768 0 1.414.495 1.655 1.18h.006l1.024 2.927h26.061a1.76 1.76 0 011.598 2.492l.005-.011zM11.383 8.853l3.255 9.295 15.123-1.009 3.729-8.286z"/></symbol></defs></svg>